<?xml version="1.0" encoding="UTF-8"?>
<svg id="Camada_1" data-name="Camada 1" xmlns="http://www.w3.org/2000/svg" viewBox="0 0 3840 2160">
  <defs>
    <style>
      .cls-1 {
        fill: var(--svg-fill-color, #000);
        stroke-width: 0px;
      }
    </style>
  </defs>
  <g>
    <path class="cls-1" d="M424.29,923.26h34.23c-18.58,88.5-85.56,132.99-171.62,132.99-97.79,0-178.46-61.12-178.46-177.98s80.68-178.46,178.46-178.46c86.06,0,153.04,44.98,171.62,133.48h-34.23c-16.14-62.1-58.67-101.7-137.39-101.7-93.88,0-145.22,60.63-145.22,146.68s51.34,146.68,145.22,146.68c78.72,0,121.26-39.6,137.39-101.7Z"/>
    <path class="cls-1" d="M867.77,878.27c0,117.84-87.03,177.98-184.82,177.98s-185.31-60.14-185.31-177.98,87.03-178.46,185.31-178.46,184.82,60.63,184.82,178.46ZM834.52,878.27c0-87.03-57.7-146.68-151.57-146.68s-151.57,59.65-151.57,146.68,57.21,146.68,151.57,146.68,151.57-59.65,151.57-146.68Z"/>
    <path class="cls-1" d="M1346.94,707.14v342.26h-32.76v-290.43l-156.46,290.43h-37.65l-156.46-290.43v290.43h-32.27v-342.26h41.07l166.73,309.5,166.73-309.5h41.07Z"/>
    <path class="cls-1" d="M1731.75,707.14v201.45c0,110.5-60.14,147.66-148.64,147.66s-148.15-37.16-148.15-147.66v-201.45h32.27v201.45c0,81.16,34.72,116.37,115.88,116.37s115.88-35.2,115.88-116.37v-201.45h32.76Z"/>
    <path class="cls-1" d="M2130.24,707.14v342.26h-44.01l-234.2-304.12v304.12h-32.27v-342.26h44l234.21,304.12v-304.12h32.27Z"/>
    <path class="cls-1" d="M2251.02,707.14v342.26h-32.76v-342.26h32.76Z"/>
    <path class="cls-1" d="M2658.8,878.27c0,117.84-71.88,171.13-194.6,171.13h-125.17v-342.26h125.17c122.73,0,194.6,53.29,194.6,171.13ZM2625.55,878.27c0-87.03-42.54-138.86-161.35-138.86h-92.9v277.23h92.9c118.81,0,161.35-51.34,161.35-138.37Z"/>
    <path class="cls-1" d="M2961.96,961.39h-210.25l-41.56,88.01h-36.67l162.33-342.26h42.05l162.33,342.26h-36.67l-41.56-88.01ZM2946.8,929.12l-89.97-190.69-89.97,190.69h179.93Z"/>
    <path class="cls-1" d="M3408.86,878.27c0,117.84-71.87,171.13-194.6,171.13h-125.17v-342.26h125.17c122.73,0,194.6,53.29,194.6,171.13ZM3375.61,878.27c0-87.03-42.54-138.86-161.35-138.86h-92.9v277.23h92.9c118.81,0,161.35-51.34,161.35-138.37Z"/>
    <path class="cls-1" d="M3731.57,1049.4h-259.14v-342.26h254.25v32.27h-221.49v117.84h207.8v32.76h-207.8v126.64h226.38v32.76Z"/>
  </g>
  <g>
    <path class="cls-1" d="M417.35,1315.48h116.42c-15.81,105.29-106.84,144.71-206.49,144.71-109.24,0-209.37-46.63-209.37-175.48s100.13-175,209.37-175c99.65,0,190.68,39.42,206.49,144.71h-116.42c-10.54-42.79-35.93-67.79-90.07-67.79-64.68,0-94.38,38.94-94.38,98.08s29.7,98.56,94.38,98.56c54.14,0,79.53-25,90.07-67.79Z"/>
    <path class="cls-1" d="M820.73,1401.06h-161.94l-21.08,51.92h-118.34l154.75-336.54h131.27l155.23,336.54h-118.34l-21.56-51.92ZM789.59,1323.17l-49.83-121.64-49.35,121.64h99.17Z"/>
    <path class="cls-1" d="M1363.52,1346.25c0,80.77-68.51,113.94-200.26,113.94-141.81,0-197.87-45.67-197.87-116.35h118.81c0,31.25,38.33,39.9,85.28,39.9s71.86-6.73,71.86-25.48c0-22.6-32.58-21.15-128.88-36.06-103.01-15.87-139.42-37.5-139.42-104.81s54.14-107.69,184.45-107.69c142.29,0,184.45,51.44,184.45,109.62h-115.46c0-23.08-26.83-33.17-70.43-33.17-45.99,0-69.95,6.73-69.95,25.96,0,23.08,41.68,25,99.17,30.77,104.92,11.06,178.22,18.27,178.22,103.37Z"/>
    <path class="cls-1" d="M1674.43,1401.06h-161.94l-21.08,51.92h-118.34l154.75-336.54h131.27l155.23,336.54h-118.34l-21.56-51.92ZM1643.29,1323.17l-49.83-121.64-49.35,121.64h99.17Z"/>
    <path class="cls-1" d="M2240.22,1401.06h-161.94l-21.08,51.92h-118.34l154.75-336.54h131.27l155.23,336.54h-118.34l-21.56-51.92ZM2209.08,1323.17l-49.83-121.64-49.35,121.64h99.17Z"/>
    <path class="cls-1" d="M2754.27,1116.44l-155.23,336.54h-131.27l-154.75-336.54h117.86l102.53,251.93,102.53-251.93h118.34Z"/>
    <path class="cls-1" d="M2892.22,1116.44v336.54h-114.02v-336.54h114.02Z"/>
    <path class="cls-1" d="M3357.42,1116.44l-155.23,336.54h-131.27l-154.75-336.54h117.86l102.53,251.93,102.53-251.93h118.33Z"/>
    <path class="cls-1" d="M3591.68,1401.06h-161.93l-21.08,51.92h-118.34l154.75-336.54h131.27l155.23,336.54h-118.33l-21.56-51.92ZM3560.54,1323.17l-49.83-121.64-49.35,121.64h99.17Z"/>
  </g>
</svg>
